<svg xmlns="http://www.w3.org/2000/svg" xmlns:xlink="http://www.w3.org/1999/xlink" width="500" zoomAndPan="magnify" viewBox="0 0 375 374.999991" height="500" preserveAspectRatio="xMidYMid meet" version="1.0"><defs><g/><clipPath id="11bce13c71"><path d="M 279 153 L 344 153 L 344 218.765625 L 279 218.765625 Z M 279 153 " clip-rule="nonzero"/></clipPath><clipPath id="4febfc2a41"><path d="M 242.664062 128.015625 L 300 128.015625 L 300 173 L 242.664062 173 Z M 242.664062 128.015625 " clip-rule="nonzero"/></clipPath></defs><rect x="-37.5" width="450" fill="#ffffff" y="-37.499999" height="449.999989" fill-opacity="1"/><rect x="-37.5" width="450" fill="#000839" y="-37.499999" height="449.999989" fill-opacity="1"/><g fill="#14ffec" fill-opacity="1"><g transform="translate(36.657149, 225.698602)"><g><path d="M 23.691406 0 L 23.691406 -60.167969 L 32.101562 -60.167969 L 32.101562 0 Z M 2.699219 -54.253906 L 2.699219 -61.929688 L 53.09375 -61.929688 L 53.09375 -54.253906 Z M 2.699219 -54.253906 "/></g></g></g><g fill="#14ffec" fill-opacity="1"><g transform="translate(92.415011, 225.698602)"><g><path d="M 5.867188 0 L 5.867188 -42.386719 L 13.921875 -42.386719 L 13.921875 0 Z M 13.921875 -24.136719 L 10.910156 -25.542969 C 10.910156 -30.914062 12.160156 -35.210938 14.65625 -38.4375 C 17.15625 -41.664062 20.753906 -43.28125 25.453125 -43.28125 C 27.566406 -43.28125 29.488281 -42.898438 31.222656 -42.140625 C 32.953125 -41.382812 34.5625 -40.164062 36.050781 -38.484375 L 30.765625 -33.015625 C 29.871094 -33.984375 28.886719 -34.675781 27.808594 -35.09375 C 26.730469 -35.507812 25.484375 -35.714844 24.070312 -35.714844 C 21.113281 -35.714844 18.679688 -34.761719 16.777344 -32.851562 C 14.871094 -30.9375 13.921875 -28.035156 13.921875 -24.136719 Z M 13.921875 -24.136719 "/></g></g></g><g fill="#14ffec" fill-opacity="1"><g transform="translate(129.795078, 225.698602)"><g><path d="M 23.9375 0.890625 C 20.027344 0.890625 16.5 -0.078125 13.363281 -2.019531 C 10.226562 -3.960938 7.746094 -6.59375 5.921875 -9.917969 C 4.101562 -13.242188 3.191406 -16.96875 3.191406 -21.105469 C 3.191406 -25.285156 4.101562 -29.039062 5.921875 -32.371094 C 7.746094 -35.703125 10.222656 -38.351562 13.351562 -40.324219 C 16.484375 -42.292969 19.996094 -43.28125 23.894531 -43.28125 C 27.136719 -43.28125 30.019531 -42.609375 32.546875 -41.273438 C 35.078125 -39.933594 37.109375 -38.082031 38.648438 -35.714844 C 40.191406 -33.351562 41.042969 -30.636719 41.203125 -27.574219 L 41.203125 -14.835938 C 41.027344 -11.773438 40.179688 -9.054688 38.660156 -6.679688 C 37.144531 -4.308594 35.117188 -2.453125 32.582031 -1.117188 C 30.046875 0.222656 27.164062 0.890625 23.9375 0.890625 Z M 25.230469 -6.714844 C 29.230469 -6.714844 32.449219 -8.058594 34.878906 -10.742188 C 37.3125 -13.425781 38.527344 -16.902344 38.527344 -21.171875 C 38.527344 -24.042969 37.972656 -26.566406 36.867188 -28.746094 C 35.757812 -30.925781 34.203125 -32.625 32.203125 -33.84375 C 30.203125 -35.0625 27.863281 -35.671875 25.1875 -35.671875 C 22.507812 -35.671875 20.144531 -35.054688 18.09375 -33.820312 C 16.039062 -32.585938 14.421875 -30.878906 13.242188 -28.699219 C 12.058594 -26.523438 11.46875 -24.019531 11.46875 -21.195312 C 11.46875 -18.367188 12.058594 -15.867188 13.242188 -13.6875 C 14.421875 -11.507812 16.046875 -9.800781 18.113281 -8.566406 C 20.183594 -7.332031 22.554688 -6.714844 25.230469 -6.714844 Z M 38.035156 0 L 38.035156 -11.378906 L 39.507812 -21.75 L 38.035156 -31.992188 L 38.035156 -42.386719 L 46.089844 -42.386719 L 46.089844 0 Z M 38.035156 0 "/></g></g></g><g fill="#14ffec" fill-opacity="1"><g transform="translate(181.716812, 225.698602)"><g><path d="M 23.78125 0.890625 C 19.898438 0.890625 16.40625 -0.078125 13.300781 -2.015625 C 10.191406 -3.957031 7.734375 -6.589844 5.925781 -9.914062 C 4.117188 -13.238281 3.210938 -16.972656 3.210938 -21.117188 C 3.210938 -25.324219 4.117188 -29.085938 5.921875 -32.40625 C 7.730469 -35.730469 10.1875 -38.371094 13.292969 -40.335938 C 16.402344 -42.296875 19.898438 -43.28125 23.78125 -43.28125 C 26.980469 -43.28125 29.851562 -42.613281 32.402344 -41.28125 C 34.953125 -39.953125 37.023438 -38.105469 38.605469 -35.738281 C 40.191406 -33.375 41.0625 -30.652344 41.226562 -27.574219 L 41.226562 -14.835938 C 41.046875 -11.785156 40.1875 -9.074219 38.640625 -6.703125 C 37.09375 -4.332031 35.035156 -2.472656 32.46875 -1.125 C 29.90625 0.21875 27.007812 0.890625 23.78125 0.890625 Z M 25.121094 -6.714844 C 27.796875 -6.714844 30.136719 -7.332031 32.140625 -8.566406 C 34.140625 -9.800781 35.707031 -11.503906 36.835938 -13.675781 C 37.964844 -15.847656 38.527344 -18.34375 38.527344 -21.171875 C 38.527344 -24.042969 37.957031 -26.5625 36.816406 -28.730469 C 35.679688 -30.894531 34.105469 -32.59375 32.101562 -33.824219 C 30.09375 -35.054688 27.757812 -35.671875 25.085938 -35.671875 C 22.417969 -35.671875 20.066406 -35.054688 18.039062 -33.820312 C 16.015625 -32.582031 14.414062 -30.878906 13.246094 -28.707031 C 12.074219 -26.535156 11.488281 -24.03125 11.488281 -21.195312 C 11.488281 -18.367188 12.070312 -15.863281 13.234375 -13.679688 C 14.398438 -11.492188 16.011719 -9.789062 18.070312 -8.558594 C 20.128906 -7.328125 22.480469 -6.714844 25.121094 -6.714844 Z M 46.089844 0 L 38.035156 0 L 38.035156 -11.378906 L 39.53125 -21.75 L 38.035156 -31.992188 L 38.035156 -63.714844 L 46.089844 -63.714844 Z M 46.089844 0 "/></g></g></g><g fill="#14ffec" fill-opacity="1"><g transform="translate(233.638546, 225.698602)"><g><path d="M 5.933594 0 L 5.933594 -42.386719 L 13.988281 -42.386719 L 13.988281 0 Z M 9.949219 -50.84375 C 8.507812 -50.84375 7.304688 -51.339844 6.347656 -52.335938 C 5.386719 -53.332031 4.90625 -54.554688 4.90625 -55.996094 C 4.90625 -57.453125 5.386719 -58.671875 6.347656 -59.652344 C 7.304688 -60.636719 8.507812 -61.125 9.949219 -61.125 C 11.453125 -61.125 12.675781 -60.636719 13.621094 -59.652344 C 14.5625 -58.671875 15.035156 -57.453125 15.035156 -55.996094 C 15.035156 -54.554688 14.5625 -53.332031 13.621094 -52.335938 C 12.675781 -51.339844 11.453125 -50.84375 9.949219 -50.84375 Z M 9.949219 -50.84375 "/></g></g></g><g fill="#14ffec" fill-opacity="1"><g transform="translate(253.62218, 225.698602)"><g><path d="M 19.808594 0.335938 L 1.449219 -42.386719 L 10.308594 -42.386719 L 23.960938 -8.921875 L 21.105469 -8.921875 L 35.492188 -42.386719 L 44.417969 -42.386719 L 24.628906 0.335938 Z M 7.695312 17.757812 L 20.121094 -7.832031 L 24.628906 0.335938 L 16.597656 17.757812 Z M 7.695312 17.757812 "/></g></g></g><g clip-path="url(#11bce13c71)"><path fill="#14ffec" d="M 279.441406 159.804688 L 298.464844 178.898438 C 299.839844 180.28125 300.914062 181.871094 301.683594 183.667969 L 301.796875 183.949219 C 302.570312 185.746094 303.644531 187.332031 305.019531 188.714844 L 332.300781 216.113281 C 332.617188 216.429688 332.964844 216.714844 333.335938 216.964844 C 333.707031 217.210938 334.101562 217.421875 334.515625 217.59375 C 334.929688 217.765625 335.355469 217.898438 335.792969 217.984375 C 336.234375 218.070312 336.675781 218.117188 337.125 218.117188 C 337.574219 218.117188 338.015625 218.070312 338.457031 217.984375 C 338.894531 217.898438 339.320312 217.765625 339.734375 217.59375 C 340.148438 217.421875 340.542969 217.210938 340.914062 216.964844 C 341.285156 216.714844 341.632812 216.429688 341.949219 216.113281 C 342.265625 215.792969 342.546875 215.449219 342.796875 215.074219 C 343.042969 214.703125 343.253906 214.308594 343.425781 213.890625 C 343.597656 213.476562 343.726562 213.050781 343.8125 212.609375 C 343.898438 212.167969 343.945312 211.722656 343.945312 211.273438 C 343.945312 210.824219 343.898438 210.378906 343.8125 209.9375 C 343.726562 209.496094 343.597656 209.070312 343.425781 208.65625 C 343.253906 208.238281 343.042969 207.84375 342.796875 207.472656 C 342.546875 207.097656 342.265625 206.753906 341.949219 206.433594 L 314.722656 179.105469 C 313.3125 177.675781 311.683594 176.570312 309.835938 175.785156 C 307.992188 175.007812 306.363281 173.914062 304.949219 172.496094 L 285.871094 153.355469 C 285.777344 153.257812 285.660156 153.214844 285.527344 153.222656 C 285.390625 153.230469 285.28125 153.289062 285.199219 153.394531 C 284.351562 154.453125 283.449219 155.460938 282.492188 156.417969 C 281.539062 157.386719 280.535156 158.296875 279.480469 159.152344 C 279.375 159.238281 279.320312 159.347656 279.3125 159.480469 C 279.304688 159.613281 279.347656 159.730469 279.441406 159.828125 Z M 279.441406 159.804688 " fill-opacity="1" fill-rule="nonzero"/></g><g clip-path="url(#4febfc2a41)"><path fill="#14ffec" d="M 243.285156 159.101562 L 247.785156 154.589844 C 247.914062 154.460938 248.058594 154.363281 248.226562 154.292969 C 248.394531 154.222656 248.570312 154.1875 248.75 154.1875 C 248.929688 154.1875 249.105469 154.222656 249.273438 154.292969 C 249.4375 154.363281 249.585938 154.460938 249.714844 154.589844 C 250.695312 154.535156 251.636719 154.308594 252.539062 153.90625 C 253.4375 153.503906 254.234375 152.953125 254.929688 152.253906 L 255.085938 152.101562 C 255.695312 151.464844 256.140625 150.726562 256.414062 149.886719 C 256.683594 149.113281 257.105469 148.433594 257.683594 147.851562 L 263.195312 142.324219 C 265.519531 139.988281 268.066406 137.933594 270.835938 136.152344 C 273.601562 134.375 276.53125 132.914062 279.613281 131.773438 C 282.699219 130.632812 285.871094 129.835938 289.125 129.386719 C 292.382812 128.933594 295.648438 128.839844 298.925781 129.101562 C 299.035156 129.113281 299.128906 129.15625 299.203125 129.234375 C 299.28125 129.3125 299.324219 129.40625 299.332031 129.515625 C 299.34375 129.625 299.316406 129.722656 299.257812 129.8125 C 299.195312 129.902344 299.113281 129.964844 299.011719 129.996094 C 295.128906 131.054688 291.765625 133.015625 288.929688 135.875 L 283.621094 141.199219 C 283.394531 141.429688 283.21875 141.695312 283.097656 141.992188 C 282.972656 142.292969 282.914062 142.601562 282.914062 142.925781 C 282.914062 143.25 282.972656 143.5625 283.097656 143.859375 C 283.21875 144.160156 283.394531 144.421875 283.621094 144.652344 L 286.097656 147.132812 C 286.207031 147.246094 286.273438 147.378906 286.292969 147.535156 C 286.3125 147.691406 286.28125 147.835938 286.199219 147.96875 C 284.707031 150.464844 282.9375 152.742188 280.886719 154.800781 C 278.835938 156.859375 276.566406 158.636719 274.082031 160.136719 C 273.945312 160.214844 273.800781 160.246094 273.648438 160.226562 C 273.492188 160.207031 273.359375 160.140625 273.25 160.03125 L 270.78125 157.554688 C 270.554688 157.324219 270.289062 157.144531 269.992188 157.023438 C 269.691406 156.898438 269.382812 156.835938 269.058594 156.835938 C 268.734375 156.835938 268.425781 156.898438 268.128906 157.023438 C 267.828125 157.144531 267.566406 157.324219 267.335938 157.554688 C 266.703125 158.167969 265.96875 158.609375 265.132812 158.878906 C 264.363281 159.15625 263.691406 159.585938 263.117188 160.167969 L 262.96875 160.324219 C 262.273438 161.019531 261.722656 161.820312 261.324219 162.722656 C 260.921875 163.625 260.695312 164.570312 260.644531 165.554688 C 260.773438 165.683594 260.871094 165.832031 260.941406 166 C 261.007812 166.167969 261.042969 166.339844 261.042969 166.523438 C 261.042969 166.703125 261.007812 166.878906 260.941406 167.046875 C 260.871094 167.214844 260.773438 167.363281 260.644531 167.492188 L 256.144531 172.007812 C 256.015625 172.136719 255.867188 172.238281 255.699219 172.308594 C 255.535156 172.375 255.359375 172.410156 255.179688 172.410156 C 254.996094 172.410156 254.824219 172.375 254.65625 172.308594 C 254.488281 172.238281 254.34375 172.136719 254.214844 172.007812 L 243.285156 161.039062 C 243.15625 160.910156 243.058594 160.761719 242.992188 160.59375 C 242.921875 160.425781 242.886719 160.25 242.886719 160.070312 C 242.886719 159.886719 242.921875 159.714844 242.992188 159.546875 C 243.058594 159.378906 243.15625 159.230469 243.285156 159.101562 Z M 243.285156 159.101562 " fill-opacity="1" fill-rule="nonzero"/></g></svg>